<?xml version="1.0" encoding="UTF-8"?>
<svg id="Layer_2" data-name="Layer 2" xmlns="http://www.w3.org/2000/svg" xmlns:xlink="http://www.w3.org/1999/xlink" viewBox="0 0 433.81 59.52">
  <defs>
    <style>
      .cls-1 {
        fill: #010101;
      }

      .cls-2 {
        fill: url(#radial-gradient-3);
      }

      .cls-3 {
        fill: url(#radial-gradient-2);
      }

      .cls-4 {
        fill: url(#radial-gradient);
      }

      .cls-5 {
        fill: #1f5d8e;
      }
    </style>
    <radialGradient id="radial-gradient" cx="35.43" cy="27.17" fx="35.43" fy="27.17" r="30.9" gradientUnits="userSpaceOnUse">
      <stop offset="0" stop-color="#dbb92b"/>
      <stop offset=".4" stop-color="#dbb42a"/>
      <stop offset=".84" stop-color="#dca727"/>
      <stop offset="1" stop-color="#dda126"/>
    </radialGradient>
    <radialGradient id="radial-gradient-2" cx="21.91" cy="34.21" fx="21.91" fy="24.9" r="29.37" gradientUnits="userSpaceOnUse">
      <stop offset="0" stop-color="#229dbf"/>
      <stop offset=".15" stop-color="#2296b9"/>
      <stop offset=".36" stop-color="#2384ab"/>
      <stop offset=".61" stop-color="#246794"/>
      <stop offset=".88" stop-color="#263e74"/>
      <stop offset="1" stop-color="#282964"/>
    </radialGradient>
    <radialGradient id="radial-gradient-3" cx="158.31" cy="6.71" fx="158.31" fy="6.71" r="6.01" gradientUnits="userSpaceOnUse">
      <stop offset="0" stop-color="#dbb92b"/>
      <stop offset=".49" stop-color="#dbb62a"/>
      <stop offset=".78" stop-color="#dbae28"/>
      <stop offset="1" stop-color="#dda126"/>
    </radialGradient>
  </defs>
  <g id="Layer_1-2" data-name="Layer 1">
    <g>
      <g>
        <path class="cls-1" d="M224.39,13.98c-.54-.43-1.14-.79-1.81-1.08-.67-.28-1.36-.51-2.07-.68l-1.79-.46c-.51-.13-1.02-.3-1.53-.5-.5-.21-.92-.48-1.25-.82-.33-.34-.5-.78-.5-1.31,0-.49.14-.92.42-1.3.28-.38.68-.68,1.2-.89.52-.22,1.14-.33,1.86-.33,1.04,0,1.88.23,2.53.68.65.45,1.01,1.09,1.1,1.91h3.33c-.03-1.06-.33-2.01-.91-2.84-.58-.83-1.38-1.48-2.41-1.96-1.03-.47-2.23-.71-3.59-.71s-2.54.23-3.59.7c-1.06.47-1.89,1.13-2.5,1.98s-.91,1.84-.91,2.97c0,1.36.45,2.45,1.34,3.28.9.83,2.15,1.45,3.75,1.87l2.18.57c.69.17,1.3.37,1.82.6.52.23.92.5,1.21.83.29.33.43.74.43,1.24,0,.55-.16,1.03-.49,1.45-.33.42-.78.74-1.36.97-.58.23-1.25.35-2,.35s-1.38-.11-1.97-.33c-.59-.22-1.07-.55-1.43-1-.36-.45-.57-1-.63-1.67h-3.38c.05,1.26.39,2.33,1,3.22.62.88,1.47,1.56,2.57,2.02,1.09.46,2.38.69,3.87.69s2.83-.24,3.91-.71c1.08-.48,1.91-1.14,2.48-1.99.57-.85.86-1.84.86-2.97,0-.83-.16-1.56-.48-2.17-.32-.62-.74-1.14-1.28-1.58Z"/>
        <path class="cls-1" d="M239.41,17.15c0,.69-.13,1.28-.39,1.78-.26.5-.62.88-1.09,1.13-.46.26-.99.39-1.58.39-.88,0-1.56-.27-2.07-.82-.5-.55-.75-1.3-.75-2.27v-8.64h-3.35v9.15c0,1.15.2,2.13.61,2.94.41.81.98,1.43,1.72,1.85.74.42,1.61.63,2.59.63,1.15,0,2.12-.31,2.91-.93.64-.5,1.15-1.22,1.54-2.14l.03,2.88h3.18v-14.39h-3.36v8.43Z"/>
        <path class="cls-1" d="M257.99,9.39c-.89-.57-1.9-.85-3.01-.85-.85,0-1.55.14-2.09.43-.55.29-.98.63-1.29,1.02-.32.39-.56.76-.73,1.11h-.22v-2.38h-3.27v19.77h3.35v-7.66h.14c.17.34.42.71.75,1.11.33.39.76.73,1.31,1.01.55.28,1.23.42,2.05.42,1.14,0,2.16-.29,3.06-.87.9-.58,1.6-1.42,2.12-2.53.51-1.11.77-2.45.77-4.03s-.26-2.94-.79-4.05c-.53-1.1-1.24-1.94-2.13-2.5ZM257.09,18.33c-.26.71-.64,1.27-1.15,1.67-.51.41-1.13.61-1.88.61s-1.35-.19-1.86-.59c-.51-.39-.9-.94-1.16-1.64-.26-.7-.39-1.52-.39-2.46s.13-1.75.39-2.44c.26-.69.65-1.23,1.15-1.62.51-.39,1.13-.58,1.87-.58s1.39.2,1.89.6c.51.4.89.95,1.14,1.65.25.7.38,1.49.38,2.39s-.13,1.69-.39,2.4Z"/>
        <path class="cls-1" d="M274.04,22.92c.84-.32,1.53-.77,2.09-1.35.56-.58.95-1.25,1.18-2.03l-3.08-.63c-.15.4-.36.74-.66,1.02-.29.28-.64.49-1.04.63-.4.14-.84.21-1.33.21-.74,0-1.39-.16-1.94-.48-.56-.32-.99-.79-1.3-1.42-.28-.56-.42-1.24-.45-2.03h10.01v-1.06c0-1.26-.17-2.35-.52-3.26-.35-.91-.83-1.67-1.44-2.26-.61-.59-1.32-1.03-2.11-1.31-.79-.28-1.63-.42-2.5-.42-1.37,0-2.57.32-3.58.95-1.02.63-1.8,1.5-2.36,2.62-.55,1.12-.83,2.41-.83,3.9s.28,2.81.84,3.91c.56,1.11,1.36,1.96,2.41,2.57,1.04.61,2.29.91,3.74.91,1.07,0,2.03-.16,2.86-.48ZM267.91,13.08c.27-.58.66-1.04,1.18-1.39.51-.35,1.14-.52,1.88-.52s1.35.17,1.85.51c.49.34.86.82,1.11,1.43.18.44.29.93.34,1.46h-6.74c.04-.54.17-1.04.38-1.5Z"/>
        <path class="cls-1" d="M289.67,11.69v-3.08c-.16-.03-.36-.05-.59-.06-.23-.02-.44-.03-.63-.03-.82,0-1.56.23-2.2.68-.64.45-1.09,1.09-1.35,1.92h-.15v-2.41h-3.24v14.39h3.35v-8.47c0-.61.14-1.15.42-1.61.28-.47.66-.83,1.16-1.1.49-.27,1.05-.4,1.67-.4.3,0,.61.02.91.05.31.03.53.07.67.12Z"/>
        <path class="cls-1" d="M312.04,22.69c1.08-.48,1.91-1.14,2.48-1.99.57-.85.86-1.84.86-2.97,0-.83-.16-1.56-.48-2.17-.32-.62-.74-1.14-1.28-1.58-.54-.43-1.14-.79-1.81-1.08-.67-.28-1.36-.51-2.07-.68l-1.79-.46c-.51-.13-1.02-.3-1.53-.5-.5-.21-.92-.48-1.25-.82-.33-.34-.5-.78-.5-1.31,0-.49.14-.92.42-1.3.28-.38.68-.68,1.2-.89.52-.22,1.14-.33,1.86-.33,1.04,0,1.88.23,2.53.68.65.45,1.01,1.09,1.1,1.91h3.33c-.03-1.06-.33-2.01-.91-2.84-.58-.83-1.38-1.48-2.41-1.96-1.03-.47-2.23-.71-3.59-.71s-2.54.23-3.59.7c-1.06.47-1.89,1.13-2.5,1.98s-.91,1.84-.91,2.97c0,1.36.45,2.45,1.35,3.28.9.83,2.15,1.45,3.75,1.87l2.18.57c.69.17,1.3.37,1.82.6.52.23.92.5,1.21.83.29.33.43.74.43,1.24,0,.55-.16,1.03-.49,1.45-.33.42-.78.74-1.36.97-.58.23-1.25.35-2,.35s-1.38-.11-1.97-.33c-.59-.22-1.07-.55-1.43-1-.36-.45-.57-1-.63-1.67h-3.38c.05,1.26.39,2.33,1,3.22.62.88,1.47,1.56,2.57,2.02,1.09.46,2.38.69,3.87.69s2.83-.24,3.91-.71Z"/>
        <path class="cls-1" d="M322.82,20.83h.14c.17.34.42.71.75,1.11.33.39.76.73,1.31,1.01.55.28,1.23.42,2.05.42,1.14,0,2.16-.29,3.06-.87.9-.58,1.6-1.42,2.12-2.53.51-1.11.77-2.45.77-4.03s-.26-2.94-.79-4.05c-.53-1.1-1.24-1.94-2.13-2.5-.89-.57-1.9-.85-3.01-.85-.85,0-1.55.14-2.09.43-.55.29-.98.63-1.29,1.02-.32.39-.56.76-.73,1.11h-.22v-2.38h-3.27v19.77h3.35v-7.66ZM323.14,13.49c.26-.69.65-1.23,1.15-1.62.51-.39,1.13-.58,1.87-.58s1.39.2,1.89.6c.51.4.89.95,1.14,1.65.25.7.38,1.49.38,2.39s-.13,1.69-.39,2.4c-.26.71-.64,1.27-1.15,1.67-.51.41-1.13.61-1.88.61s-1.35-.19-1.86-.59c-.51-.39-.9-.94-1.16-1.64-.26-.7-.39-1.52-.39-2.46s.13-1.75.39-2.44Z"/>
        <path class="cls-1" d="M348.23,21.57c.56-.58.95-1.25,1.18-2.03l-3.08-.63c-.15.4-.36.74-.66,1.02-.29.28-.64.49-1.04.63-.4.14-.84.21-1.33.21-.74,0-1.39-.16-1.94-.48-.56-.32-.99-.79-1.3-1.42-.28-.56-.42-1.24-.45-2.03h10.01v-1.06c0-1.26-.17-2.35-.52-3.26-.35-.91-.83-1.67-1.44-2.26-.61-.59-1.32-1.03-2.11-1.31-.79-.28-1.63-.42-2.5-.42-1.37,0-2.57.32-3.58.95-1.02.63-1.8,1.5-2.36,2.62-.55,1.12-.83,2.41-.83,3.9s.28,2.81.84,3.91c.56,1.11,1.36,1.96,2.41,2.57,1.04.61,2.29.91,3.74.91,1.07,0,2.03-.16,2.86-.48.84-.32,1.53-.77,2.09-1.35ZM340.01,13.08c.27-.58.66-1.04,1.18-1.39.51-.35,1.14-.52,1.88-.52s1.35.17,1.85.51c.49.34.86.82,1.11,1.43.18.44.29.93.34,1.46h-6.74c.04-.54.17-1.04.38-1.5Z"/>
        <path class="cls-1" d="M361.99,23.08c.69-.21,1.31-.52,1.85-.92.55-.4,1-.88,1.36-1.45.36-.57.62-1.21.78-1.93l-3.13-.66c-.09.39-.22.74-.4,1.05-.18.32-.4.59-.66.81-.26.22-.56.39-.9.51-.34.12-.71.18-1.13.18-.78,0-1.43-.21-1.94-.62-.51-.42-.9-.98-1.16-1.69-.26-.71-.39-1.51-.39-2.39s.13-1.71.39-2.41c.26-.71.64-1.27,1.16-1.69.51-.42,1.16-.62,1.94-.62.4,0,.77.06,1.11.17.34.12.63.28.89.5.26.21.47.47.65.78.18.3.31.64.41,1.01l3.13-.66c-.15-.7-.41-1.33-.78-1.89-.36-.56-.82-1.03-1.36-1.42-.54-.39-1.15-.69-1.84-.89-.69-.21-1.43-.31-2.23-.31-1.4,0-2.61.31-3.64.93-1.03.62-1.83,1.49-2.39,2.61-.56,1.12-.84,2.43-.84,3.92s.28,2.77.84,3.88c.56,1.11,1.36,1.98,2.39,2.6,1.03.62,2.24.93,3.64.93.81,0,1.56-.11,2.25-.32Z"/>
        <path class="cls-1" d="M371.42,6.69c.54,0,1-.18,1.38-.54.38-.36.57-.79.57-1.3s-.19-.94-.57-1.29c-.38-.36-.84-.53-1.38-.53s-.99.18-1.37.53c-.38.36-.57.79-.57,1.31s.19.93.57,1.29c.38.36.84.54,1.37.54Z"/>
        <rect class="cls-1" x="369.75" y="8.72" width="3.35" height="14.39"/>
        <path class="cls-1" d="M387.32,9.58c-.58-.38-1.21-.65-1.9-.8-.69-.16-1.37-.24-2.05-.24-.96,0-1.85.14-2.67.41-.82.27-1.53.69-2.12,1.24-.59.55-1.03,1.25-1.31,2.1l3.1.63c.12-.32.31-.61.57-.89.26-.27.59-.5,1-.67.41-.17.89-.26,1.45-.26s1.01.09,1.38.26c.37.18.65.43.84.76.19.33.28.73.28,1.2v.06c0,.33-.12.57-.37.72-.24.15-.63.27-1.15.33-.52.07-1.2.15-2.03.24-.7.07-1.38.18-2.03.35-.65.16-1.24.4-1.76.72-.52.32-.93.74-1.24,1.27-.3.53-.46,1.21-.46,2.02,0,.94.21,1.74.63,2.38.42.64.99,1.13,1.72,1.46.73.33,1.55.5,2.46.5.76,0,1.41-.11,1.96-.31.55-.21,1.02-.49,1.39-.84.37-.35.67-.72.88-1.13h.13v1.98h3.2v-9.61c0-.96-.18-1.76-.53-2.39-.35-.63-.82-1.14-1.39-1.52ZM385.92,17.95c0,.53-.14,1.02-.42,1.47-.28.45-.67.81-1.17,1.09-.5.27-1.1.41-1.8.41-.47,0-.89-.07-1.26-.22-.36-.15-.65-.36-.86-.64-.21-.28-.32-.62-.32-1.04,0-.45.11-.81.34-1.09.23-.28.54-.5.95-.65.4-.15.85-.27,1.35-.33.21-.03.48-.06.79-.1.31-.04.63-.09.95-.15.32-.06.61-.13.88-.21.26-.08.45-.16.56-.24v1.7Z"/>
        <rect class="cls-1" x="393.82" y="3.93" width="3.35" height="19.18"/>
        <rect class="cls-1" x="401.79" y="8.72" width="3.35" height="14.39"/>
        <path class="cls-1" d="M403.46,3.02c-.53,0-.99.18-1.37.53-.38.36-.57.79-.57,1.31s.19.93.57,1.29c.38.36.84.54,1.37.54s1-.18,1.38-.54c.38-.36.57-.79.57-1.3s-.19-.94-.57-1.29c-.38-.36-.84-.53-1.38-.53Z"/>
        <path class="cls-1" d="M415.73,20.51c-.25.04-.46.06-.61.06-.51,0-.87-.12-1.09-.37-.22-.24-.34-.63-.34-1.15v-7.71h2.78v-2.63h-2.78v-3.42h-3.35v3.42h-2.05v2.63h2.05v7.99c0,1.27.37,2.25,1.11,2.93.74.69,1.8,1.03,3.18,1.03.35,0,.72-.02,1.11-.07s.76-.13,1.13-.24l-.53-2.59c-.15.03-.36.07-.61.11Z"/>
        <path class="cls-1" d="M430.27,8.72l-2.72,7.82c-.31.92-.58,1.84-.81,2.76-.08.33-.17.67-.25,1.01-.08-.34-.15-.67-.22-1-.2-.92-.45-1.84-.76-2.77l-2.63-7.82h-3.58l5.43,14.44-.21.91c-.11.55-.3.97-.57,1.26-.27.29-.6.46-.99.51-.39.06-.85.02-1.35-.11l-.4-.1-.79,2.61c.22.09.53.18.93.24.4.07.83.1,1.31.1.87,0,1.62-.14,2.25-.42.63-.28,1.17-.7,1.61-1.24.44-.55.8-1.2,1.09-1.96l6.18-16.24h-3.54Z"/>
        <polygon class="cls-1" points="280.51 39.88 271.59 39.88 271.59 31.95 268.15 31.95 268.15 51.12 271.59 51.12 271.59 42.77 280.51 42.77 280.51 51.12 283.94 51.12 283.94 31.95 280.51 31.95 280.51 39.88"/>
        <path class="cls-1" d="M298.69,37.48c-1.03-.62-2.25-.93-3.65-.93s-2.61.31-3.64.93c-1.03.62-1.83,1.49-2.39,2.61-.56,1.12-.84,2.43-.84,3.92s.28,2.77.84,3.88c.56,1.11,1.36,1.98,2.39,2.6,1.03.62,2.24.93,3.64.93s2.63-.31,3.65-.93c1.03-.62,1.83-1.49,2.39-2.6.56-1.11.84-2.4.84-3.88s-.28-2.8-.84-3.92c-.56-1.12-1.36-1.99-2.39-2.61ZM298.14,46.38c-.25.71-.64,1.28-1.16,1.7-.52.42-1.17.63-1.95.63s-1.43-.21-1.94-.63c-.51-.42-.89-.99-1.15-1.7-.25-.71-.38-1.51-.38-2.38s.13-1.69.38-2.4c.25-.71.63-1.27,1.15-1.69.51-.42,1.16-.63,1.94-.63s1.43.21,1.95.63c.52.42.9.99,1.16,1.7.25.71.38,1.51.38,2.39s-.13,1.67-.38,2.38Z"/>
        <path class="cls-1" d="M313.19,42.93l-2.45-.51c-.73-.15-1.25-.37-1.57-.64-.32-.27-.48-.62-.48-1.04,0-.49.24-.89.71-1.2.48-.31,1.07-.47,1.78-.47.78,0,1.39.17,1.81.52.43.35.72.77.89,1.28l2.99-.59c-.19-.75-.53-1.4-1.01-1.95-.48-.55-1.12-.98-1.9-1.29-.79-.31-1.72-.46-2.81-.46-1.15,0-2.16.18-3.03.54-.87.36-1.55.87-2.04,1.52-.49.65-.73,1.42-.73,2.32,0,1.06.34,1.92,1,2.59.67.67,1.68,1.15,3.04,1.44l2.46.53c.66.15,1.15.35,1.47.62.32.27.48.61.48,1.02,0,.49-.24.9-.73,1.23-.49.33-1.14.5-1.96.5s-1.47-.17-1.98-.52c-.5-.35-.85-.88-1.05-1.59l-3.13.59c.16.87.52,1.6,1.06,2.21.54.61,1.24,1.07,2.09,1.39.85.32,1.83.48,2.93.48,1.21,0,2.28-.19,3.21-.59.93-.39,1.66-.93,2.18-1.62.52-.69.79-1.49.79-2.4,0-1.01-.33-1.84-.99-2.48-.66-.64-1.67-1.11-3.04-1.4Z"/>
        <path class="cls-1" d="M331.72,37.41c-.89-.57-1.9-.85-3.01-.85-.85,0-1.55.14-2.09.43-.55.29-.98.63-1.29,1.02-.32.39-.56.76-.73,1.11h-.22v-2.38h-3.27v19.77h3.35v-7.66h.14c.17.34.42.71.75,1.11s.76.73,1.31,1.01c.55.28,1.23.42,2.05.42,1.14,0,2.16-.29,3.06-.87.9-.58,1.6-1.42,2.12-2.53.51-1.11.77-2.45.77-4.03s-.26-2.94-.79-4.05c-.53-1.1-1.24-1.94-2.13-2.5ZM330.82,46.34c-.26.71-.64,1.27-1.15,1.67-.51.41-1.13.61-1.88.61s-1.35-.19-1.86-.59c-.51-.39-.9-.94-1.16-1.64-.26-.7-.39-1.52-.39-2.46s.13-1.75.39-2.44.65-1.23,1.15-1.62c.51-.39,1.13-.58,1.87-.58s1.39.2,1.89.6c.51.4.89.95,1.14,1.65.25.7.38,1.49.38,2.39s-.13,1.69-.39,2.4Z"/>
        <path class="cls-1" d="M340.25,31.04c-.53,0-.99.18-1.37.53-.38.36-.57.79-.57,1.31s.19.93.57,1.29c.38.36.84.54,1.37.54s1-.18,1.38-.54c.38-.36.57-.79.57-1.3s-.19-.94-.57-1.29c-.38-.36-.84-.53-1.38-.53Z"/>
        <rect class="cls-1" x="338.58" y="36.74" width="3.35" height="14.39"/>
        <path class="cls-1" d="M352.52,48.53c-.25.04-.46.06-.61.06-.51,0-.87-.12-1.09-.37-.22-.24-.34-.63-.34-1.15v-7.71h2.78v-2.63h-2.78v-3.42h-3.35v3.42h-2.05v2.63h2.05v7.99c0,1.27.37,2.25,1.11,2.93.74.69,1.8,1.03,3.18,1.03.35,0,.72-.02,1.11-.07.39-.05.76-.13,1.13-.24l-.53-2.59c-.15.03-.36.07-.61.11Z"/>
        <path class="cls-1" d="M366.7,37.6c-.58-.38-1.21-.65-1.9-.8-.69-.16-1.37-.24-2.05-.24-.96,0-1.85.14-2.67.41-.82.27-1.53.69-2.12,1.24-.59.55-1.03,1.25-1.31,2.1l3.1.63c.12-.32.31-.61.57-.89.26-.27.59-.5,1-.67.41-.17.89-.26,1.45-.26s1.01.09,1.38.26c.37.18.65.43.84.76.19.33.28.73.28,1.2v.06c0,.33-.12.57-.37.72-.24.15-.63.27-1.15.33-.52.07-1.2.15-2.03.24-.7.07-1.38.18-2.03.35-.65.16-1.24.4-1.76.72-.52.32-.93.74-1.24,1.27-.3.53-.46,1.21-.46,2.02,0,.94.21,1.74.63,2.38.42.64.99,1.13,1.72,1.46.73.33,1.55.5,2.46.5.76,0,1.41-.1,1.96-.31.55-.21,1.02-.49,1.39-.84.37-.35.67-.72.88-1.13h.13v1.98h3.2v-9.61c0-.96-.18-1.76-.53-2.39-.35-.63-.82-1.14-1.39-1.52ZM365.3,45.96c0,.53-.14,1.02-.42,1.47-.28.45-.67.81-1.17,1.09-.5.27-1.1.41-1.8.41-.47,0-.89-.07-1.26-.22-.36-.15-.65-.36-.86-.64-.21-.28-.32-.62-.32-1.04,0-.45.11-.81.34-1.09.23-.28.54-.5.95-.65.4-.15.85-.27,1.35-.33.21-.03.48-.06.79-.1.31-.04.63-.09.95-.15.32-.06.61-.13.88-.21.26-.08.45-.16.56-.24v1.7Z"/>
        <rect class="cls-1" x="373.2" y="31.95" width="3.35" height="19.18"/>
      </g>
      <g>
        <g>
          <path class="cls-4" d="M37.46,1.02C30.13-.94,22.71,0,16.43,3.16c-1.58.79-3.09,1.72-4.51,2.78-1.4,5.06-.18,10.66,3.09,14.72.48.59.99,1.16,1.53,1.7.29.3.59.58.9.87.15.14.71.81.9.8,4.87-.19,4.34-3.5-2.2-8.68,8.54,6.77,11.63,4.3,6.87-5.51,4.75,9.8,8.61,8.91,8.58-1.98.03,10.9,3.89,11.77,8.59,1.94-4.7,9.83-1.6,12.29,6.9,5.47-8.5,6.82-6.77,10.38,3.84,7.92-10.62,2.45-10.61,6.41.02,8.8-10.63-2.4-12.34,1.17-3.8,7.94-4.59-3.64-7.61-4.61-8.67-3.2,2.54,2.09,4.79,4.57,6.4,7.46,1.82,3.26,2.04,6.47,1.61,10.15,4.61-3.13,8.37-7.57,10.65-12.95.05-.12.09-.23.14-.35.05-.12.09-.23.14-.35.14-.35.27-.7.39-1.06.03-.09.06-.18.1-.27.01-.03.02-.06.03-.09.07-.22.14-.44.21-.66.06-.18.11-.36.16-.55h0c.06-.2.11-.39.16-.58v-.04c.18-.61.32-1.23.44-1.84.1-.48.18-.95.25-1.43.04-.23.07-.46.1-.69.03-.22.05-.45.07-.67,0-.02,0-.03,0-.05.02-.22.04-.44.06-.67.02-.23.04-.46.05-.69.79-13.78-8.15-26.68-22-30.39Z"/>
          <path class="cls-3" d="M26.6,24.05c.86-3.19,4.14-5.09,7.33-4.23,3.19.86,5.09,4.14,4.23,7.33-.86,3.19-4.14,5.09-7.33,4.23-3.19-.86-5.09-4.14-4.23-7.33ZM43.73,50.56c-.12-.97-.36-1.93-.72-2.88-.02-.05-.04-.1-.07-.14-1.3-2.81-3.57-5.57-6.94-8.43-1.23-1.05-2.56-2.06-4.03-3.06,0,0-.01,0-.02-.01-1.65-1.03-3.48-2.04-5.47-3.03-3.46-1.72-6.42-3.53-8.9-5.44h0c-1.51-1.04-2.95-2.21-4.28-3.57-3.18-3.28-4.85-6.97-4.9-10.71-.16-1.53-.09-3,.15-4.39-.39.39-.76.79-1.12,1.21-.08.09-.15.18-.23.27-.24.28-.47.55-.69.84-.08.09-.15.19-.22.29-.04.04-.07.09-.1.13-.05.07-.11.14-.16.21-.09.11-.17.23-.26.34-.05.07-.1.14-.15.21-.16.23-.33.46-.48.69-.09.14-.19.28-.28.43-.18.28-.36.56-.53.85-.09.15-.19.31-.28.46-.08.14-.16.27-.23.41-.04.08-.08.15-.13.23-.06.11-.12.22-.18.32-.02.04-.04.08-.06.11-.05.09-.1.18-.14.27-.08.16-.16.31-.23.47-.07.14-.14.27-.2.41-.02.04-.04.08-.06.12-.06.13-.12.26-.18.38-.08.17-.15.33-.22.5-.06.14-.12.28-.17.42-.06.14-.12.29-.17.43-.04.09-.07.18-.1.27-.11.3-.22.59-.32.9-.05.15-.11.31-.15.46,0,.03-.02.05-.02.07-.05.14-.09.29-.14.44h0c-.05.15-.09.3-.13.45-.06.19-.11.39-.16.58-2.13,7.93-.84,15.98,2.97,22.57.59,1.03,1.25,2.02,1.96,2.98.63.83,1.29,1.64,2,2.4.28.31.58.61.87.9.15.15.3.29.45.44,1.09,1.03,2.26,1.99,3.5,2.85.37.26.75.51,1.14.75.13.08.26.16.39.24.44.27.89.52,1.35.77.16.08.31.17.47.25.15.08.3.15.45.23.13.06.27.13.4.19.06.03.12.06.18.09.59.28,1.2.53,1.82.77.33.13.66.25,1,.37.34.12.68.23,1.02.33.34.11.69.21,1.04.3.06.01.11.03.17.04.06.02.11.03.17.04.03.01.06.02.1.03.11.03.21.05.32.08.05.01.1.03.14.03.1.03.21.05.32.07.22.05.44.1.66.14.25.05.5.1.74.14.25.04.5.08.74.12.62.09,1.24.17,1.86.22.29.03.58.05.86.06.44.03.88.04,1.32.04.02,0,.04,0,.05,0,.24,0,.48,0,.71,0,.12,0,.24,0,.37,0,.37,0,.73-.03,1.09-.05.12,0,.24-.02.36-.03.51-.04,1.03-.09,1.54-.16.2-.03.4-.05.6-.08.48-.07.97-.16,1.45-.26.12-.02.24-.05.35-.07.42-.09.84-.19,1.25-.3.17-.04.33-.09.49-.13,1.15-.32,2.28-.71,3.38-1.17.18-.07.35-.15.53-.23.37-.16.74-.33,1.1-.51.11-.05.21-.1.32-.16,0,0,.02,0,.03-.01.6-1.75.91-3.71.65-5.8Z"/>
        </g>
        <g>
          <g>
            <path class="cls-5" d="M94.34,54.77c-5.13,0-9.63-1.12-13.5-3.37-3.87-2.24-6.88-5.39-9.03-9.43-2.15-4.04-3.22-8.76-3.22-14.13,0-4.09.6-7.78,1.81-11.06,1.21-3.28,2.95-6.09,5.22-8.44,2.27-2.34,4.99-4.15,8.18-5.44,3.18-1.28,6.7-1.92,10.54-1.92,5.23,0,9.77,1.11,13.61,3.33,3.85,2.22,6.84,5.34,8.99,9.36,2.15,4.02,3.22,8.72,3.22,14.1,0,4.1-.62,7.79-1.85,11.1-1.23,3.31-2.99,6.14-5.25,8.51-2.27,2.37-4.98,4.19-8.14,5.48-3.16,1.28-6.68,1.92-10.58,1.92ZM94.34,45c2.91,0,5.39-.68,7.44-2.03,2.05-1.36,3.63-3.33,4.74-5.92,1.11-2.59,1.66-5.66,1.66-9.21,0-5.43-1.21-9.63-3.63-12.62-2.42-2.98-5.82-4.48-10.21-4.48-2.86,0-5.33.67-7.4,2-2.07,1.33-3.65,3.28-4.74,5.85-1.09,2.57-1.63,5.65-1.63,9.25,0,5.38,1.21,9.58,3.63,12.62,2.42,3.03,5.8,4.55,10.14,4.55Z"/>
            <path class="cls-5" d="M141.18,54.77c-4.39,0-7.67-1.22-9.84-3.66-2.17-2.44-3.26-6.08-3.26-10.91V6.82c0-1.87.48-3.29,1.44-4.25.96-.96,2.36-1.44,4.18-1.44s3.14.48,4.11,1.44c.96.96,1.44,2.38,1.44,4.25v32.93c0,2.02.43,3.51,1.29,4.48.86.96,2.01,1.44,3.44,1.44.39,0,.76-.02,1.11-.07.34-.05.71-.07,1.11-.07.79-.1,1.34.14,1.66.7.32.57.48,1.69.48,3.37,0,1.48-.3,2.6-.89,3.37-.59.77-1.51,1.27-2.74,1.52-.49.05-1.06.11-1.7.18-.64.07-1.26.11-1.85.11Z"/>
            <path class="cls-5" d="M158.34,54.55c-1.83,0-3.22-.53-4.18-1.59s-1.44-2.55-1.44-4.48v-25.31c0-1.97.48-3.49,1.44-4.55.96-1.06,2.36-1.59,4.18-1.59s3.14.53,4.11,1.59c.96,1.06,1.44,2.58,1.44,4.55v25.31c0,1.92-.47,3.42-1.41,4.48-.94,1.06-2.32,1.59-4.14,1.59Z"/>
            <path class="cls-5" d="M178.32,54.62c-1.88,0-3.31-.49-4.29-1.48-.99-.99-1.48-2.39-1.48-4.22v-26.27c0-1.82.48-3.22,1.44-4.18.96-.96,2.31-1.44,4.03-1.44s3.13.48,4.07,1.44c.94.96,1.41,2.36,1.41,4.18v3.85h-.74c.59-2.96,1.9-5.25,3.92-6.88,2.02-1.63,4.64-2.54,7.84-2.74,1.23-.1,2.18.21,2.85.92.67.72,1.02,1.89,1.07,3.51.1,1.53-.21,2.74-.92,3.63-.72.89-1.91,1.43-3.59,1.63l-1.7.15c-2.81.25-4.9,1.06-6.25,2.44-1.36,1.38-2.03,3.38-2.03,5.99v13.76c0,1.83-.48,3.23-1.44,4.22-.96.99-2.36,1.48-4.18,1.48Z"/>
          </g>
          <path class="cls-2" d="M158.34,12.3c-2.07,0-3.66-.48-4.77-1.44-1.11-.96-1.66-2.33-1.66-4.11s.55-3.22,1.66-4.18c1.11-.96,2.7-1.44,4.77-1.44s3.65.48,4.74,1.44c1.08.96,1.63,2.36,1.63,4.18s-.54,3.14-1.63,4.11c-1.09.96-2.66,1.44-4.74,1.44Z"/>
        </g>
      </g>
    </g>
  </g>
</svg>